<svg xmlns:dc="http://purl.org/dc/elements/1.1/" xmlns:cc="http://creativecommons.org/ns#" xmlns:rdf="http://www.w3.org/1999/02/22-rdf-syntax-ns#" xmlns:svg="http://www.w3.org/2000/svg" xmlns="http://www.w3.org/2000/svg" xmlns:sodipodi="http://sodipodi.sourceforge.net/DTD/sodipodi-0.dtd" xmlns:inkscape="http://www.inkscape.org/namespaces/inkscape" viewBox="0 0 48 48.000001" version="1.1" x="0px" y="0px"><g transform="translate(0,-1004.3622)"><path style="color:#000000;font-style:normal;font-variant:normal;font-weight:normal;font-stretch:normal;font-size:medium;line-height:normal;font-family:sans-serif;text-indent:0;text-align:start;text-decoration:none;text-decoration-line:none;text-decoration-style:solid;text-decoration-color:#000000;letter-spacing:normal;word-spacing:normal;text-transform:none;direction:ltr;block-progression:tb;writing-mode:lr-tb;baseline-shift:baseline;text-anchor:start;white-space:normal;clip-rule:nonzero;display:inline;overflow:visible;visibility:visible;opacity:1;isolation:auto;mix-blend-mode:normal;color-interpolation:sRGB;color-interpolation-filters:linearRGB;solid-color:#000000;solid-opacity:1;fill:#000000;fill-opacity:1;fill-rule:nonzero;stroke:none;stroke-width:2;stroke-linecap:round;stroke-linejoin:round;stroke-miterlimit:4;stroke-dasharray:none;stroke-dashoffset:0;stroke-opacity:1;color-rendering:auto;image-rendering:auto;shape-rendering:auto;text-rendering:auto;enable-background:accumulate" d="m 27.631054,1011.9704 c 3.79804,1.4088 6.545458,4.5955 7.686855,8.39 0.376837,0 0.731728,-0.04 1.074907,-0.063 l 0,0 c 1.095211,0.039 2.198358,0.2413 3.275625,0.6233 5.675956,2.0135 9.115549,7.8296 8.178296,13.8042 -0.911325,5.8091 -5.735966,10.1283 -11.532238,10.5079 -5.148598,0.2174 -10.37,0.096 -14.807865,0.092 -3.968821,-0.1978 -7.457596,-2.6734 -8.875321,-6.3208 -0.213883,-0.5502 -0.367368,-1.1124 -0.475778,-1.6783 l -2.6001375,0 c -0.01761,5e-4 -0.03525,5e-4 -0.05286,0 -3.975894,-0.2074 -7.449906,-2.8004 -8.85378291,-6.5768 -1.403962,-3.7765 -0.487275,-8.0406 2.34364891,-10.8773 2.690414,-2.6955 6.587035,-3.0347 10.0324585,-1.8757 2.405385,-3.9983 6.569775,-6.6641 10.999679,-6.6334 1.205874,0.011 2.585888,0.2389 3.606512,0.6096 z m -3.334364,1.35 -0.02153,0 c -3.856832,-0.1447 -7.783679,2.3353 -9.850372,6.1295 -0.04964,0.091 -0.113046,0.173 -0.187961,0.2443 l -0.158595,0.1504 c -0.28568,0.2724 -0.705065,0.352 -1.07099,0.2031 -3.0313125,-1.2387 -6.3720535,-0.9967 -8.5953355,1.2309 -2.273624,2.2783 -3.0170069,5.722 -1.883533,8.7711 1.132335,3.0458 3.905913,5.1025 7.070103,5.2716 l 2.3847655,0 c 2.37e-4,-0.011 0.0017,-0.021 0.002,-0.031 0.007,-0.2953 0.02865,-0.5886 0.06265,-0.8812 0.0018,-0.016 0.0039,-0.031 0.0059,-0.047 0.112637,-0.93 0.360221,-1.8409 0.736184,-2.7043 0.530327,-1.2605 1.295884,-2.2138 2.200631,-3.1633 2.701523,-2.5886 6.57989,-2.9065 10.02267,-1.7995 1.504383,-2.387 3.683657,-4.258 6.183159,-5.3341 0.682237,-0.3037 1.39082,-0.5045 2.071496,-0.6995 -1.013125,-3.1266 -3.241348,-5.6693 -6.335878,-6.8172 -0.868632,-0.3221 -1.752169,-0.4886 -2.635384,-0.5237 z m 12.025631,8.9783 c -0.571522,-0.057 -1.125953,0.042 -1.609421,0.101 -0.798976,0.097 -1.586731,0.3139 -2.35148,0.6096 -2.510935,1.0387 -4.516402,2.8845 -5.934491,5.1641 -0.418301,0.6724 -0.73031,0.8238 -1.435226,0.6043 -2.921006,-0.9095 -5.988171,-0.9728 -8.195916,0.803 -0.147183,0.1183 -0.29025,0.244 -0.428788,0.377 -0.0064,0.01 -0.01125,0.013 -0.01762,0.02 -1.595745,1.5531 -2.299042,3.5593 -2.349522,5.717 0.0037,0.1639 0.0033,0.3285 0.01762,0.4925 0.06298,0.7069 0.217101,1.4129 0.48361,2.0985 1.125945,2.8968 3.903388,4.8799 7.095557,5.043 4.750104,-0.011 9.518167,0.02 14.259641,-0.01 5.022217,-0.1632 9.22183,-3.8827 10.008964,-8.9 0.790952,-5.042 -2.09821,-9.9178 -6.868437,-11.61 -0.890431,-0.2883 -1.838521,-0.4267 -2.674491,-0.51 z"></path></g></svg>