<svg xmlns:dc="http://purl.org/dc/elements/1.1/" xmlns:cc="http://creativecommons.org/ns#" xmlns:rdf="http://www.w3.org/1999/02/22-rdf-syntax-ns#" xmlns:svg="http://www.w3.org/2000/svg" xmlns="http://www.w3.org/2000/svg" xmlns:sodipodi="http://sodipodi.sourceforge.net/DTD/sodipodi-0.dtd" xmlns:inkscape="http://www.inkscape.org/namespaces/inkscape" viewBox="0 0 48 48.000001" version="1.1" x="0px" y="0px"><g transform="translate(0,-1004.3622)"><path style="color:#000000;font-style:normal;font-variant:normal;font-weight:normal;font-stretch:normal;font-size:medium;line-height:normal;font-family:sans-serif;text-indent:0;text-align:start;text-decoration:none;text-decoration-line:none;text-decoration-style:solid;text-decoration-color:#000000;letter-spacing:normal;word-spacing:normal;text-transform:none;direction:ltr;block-progression:tb;writing-mode:lr-tb;baseline-shift:baseline;text-anchor:start;white-space:normal;clip-rule:nonzero;display:inline;overflow:visible;visibility:visible;opacity:1;isolation:auto;mix-blend-mode:normal;color-interpolation:sRGB;color-interpolation-filters:linearRGB;solid-color:#000000;solid-opacity:1;fill:#000000;fill-opacity:1;fill-rule:evenodd;stroke:none;stroke-width:2;stroke-linecap:round;stroke-linejoin:round;stroke-miterlimit:4;stroke-dasharray:none;stroke-dashoffset:0;stroke-opacity:1;color-rendering:auto;image-rendering:auto;shape-rendering:auto;text-rendering:auto;enable-background:accumulate" d="m 19.03113,1039.3621 a 1.002563,1.000015 0 0 0 -0.9868,1.0156 l 0,6.9701 a 1.002563,1.000015 0 1 0 2.004926,0 l 0,-6.9701 a 1.002563,1.000015 0 0 0 -1.018126,-1.0156 z"></path><path style="color:#000000;font-style:normal;font-variant:normal;font-weight:normal;font-stretch:normal;font-size:medium;line-height:normal;font-family:sans-serif;text-indent:0;text-align:start;text-decoration:none;text-decoration-line:none;text-decoration-style:solid;text-decoration-color:#000000;letter-spacing:normal;word-spacing:normal;text-transform:none;direction:ltr;block-progression:tb;writing-mode:lr-tb;baseline-shift:baseline;text-anchor:start;white-space:normal;clip-rule:nonzero;display:inline;overflow:visible;visibility:visible;opacity:1;isolation:auto;mix-blend-mode:normal;color-interpolation:sRGB;color-interpolation-filters:linearRGB;solid-color:#000000;solid-opacity:1;fill:#000000;fill-opacity:1;fill-rule:evenodd;stroke:none;stroke-width:2;stroke-linecap:round;stroke-linejoin:round;stroke-miterlimit:4;stroke-dasharray:none;stroke-dashoffset:0;stroke-opacity:1;color-rendering:auto;image-rendering:auto;shape-rendering:auto;text-rendering:auto;enable-background:accumulate" d="m 22.045918,1041.3622 a 1.0006541,0.99870596 0 0 0 -0.451422,0.1131 l -5.97792,2.9822 a 1.0006541,0.99870596 0 1 0 0.893072,1.7866 l 5.977921,-2.9822 a 1.0006541,0.99870596 0 0 0 -0.441651,-1.8997 z"></path><path style="color:#000000;font-style:normal;font-variant:normal;font-weight:normal;font-stretch:normal;font-size:medium;line-height:normal;font-family:sans-serif;text-indent:0;text-align:start;text-decoration:none;text-decoration-line:none;text-decoration-style:solid;text-decoration-color:#000000;letter-spacing:normal;word-spacing:normal;text-transform:none;direction:ltr;block-progression:tb;writing-mode:lr-tb;baseline-shift:baseline;text-anchor:start;white-space:normal;clip-rule:nonzero;display:inline;overflow:visible;visibility:visible;opacity:1;isolation:auto;mix-blend-mode:normal;color-interpolation:sRGB;color-interpolation-filters:linearRGB;solid-color:#000000;solid-opacity:1;fill:#000000;fill-opacity:1;fill-rule:evenodd;stroke:none;stroke-width:2;stroke-linecap:round;stroke-linejoin:round;stroke-miterlimit:4;stroke-dasharray:none;stroke-dashoffset:0;stroke-opacity:1;color-rendering:auto;image-rendering:auto;shape-rendering:auto;text-rendering:auto;enable-background:accumulate" d="m 16.018676,1041.3626 a 1.0006191,0.99868515 0 0 0 -0.412324,1.8997 l 5.977711,2.9821 a 1.0006191,0.99868515 0 1 0 0.893042,-1.7866 l -5.977711,-2.9821 a 1.0006191,0.99868515 0 0 0 -0.480718,-0.1131 z"></path><path style="color:#000000;font-style:normal;font-variant:normal;font-weight:normal;font-stretch:normal;font-size:medium;line-height:normal;font-family:sans-serif;text-indent:0;text-align:start;text-decoration:none;text-decoration-line:none;text-decoration-style:solid;text-decoration-color:#000000;letter-spacing:normal;word-spacing:normal;text-transform:none;direction:ltr;block-progression:tb;writing-mode:lr-tb;baseline-shift:baseline;text-anchor:start;white-space:normal;clip-rule:nonzero;display:inline;overflow:visible;visibility:visible;opacity:1;isolation:auto;mix-blend-mode:normal;color-interpolation:sRGB;color-interpolation-filters:linearRGB;solid-color:#000000;solid-opacity:1;fill:#000000;fill-opacity:1;fill-rule:nonzero;stroke:none;stroke-width:2;stroke-linecap:round;stroke-linejoin:round;stroke-miterlimit:4;stroke-dasharray:none;stroke-dashoffset:0;stroke-opacity:1;color-rendering:auto;image-rendering:auto;shape-rendering:auto;text-rendering:auto;enable-background:accumulate" d="m 20.368946,1004.9709 c -3.79804,1.4098 -6.545458,4.5988 -7.686855,8.396 -0.376837,0 -0.731728,-0.04 -1.074907,-0.063 l 0,0 c -1.095211,0.039 -2.1983583,0.2414 -3.2756259,0.6237 -5.6759554,2.015 -9.11554855,7.8352 -8.17829496,13.8141 0.91132386,5.8132 5.73596576,10.1355 11.53223786,10.5154 5.148598,0.2176 10.37,0.096 14.807865,0.092 3.968821,-0.198 7.457596,-2.6753 8.875321,-6.3253 0.213883,-0.5506 0.367368,-1.1132 0.475778,-1.6795 l 2.600138,0 c 0.01761,5e-4 0.03525,5e-4 0.05286,0 3.975894,-0.2076 7.449906,-2.8025 8.853783,-6.5816 1.403962,-3.7792 0.487275,-8.0463 -2.343649,-10.885 -2.690414,-2.6975 -6.587035,-3.0369 -10.032459,-1.8771 -2.405385,-4.0011 -6.569775,-6.6688 -10.999679,-6.6381 -1.205874,0.011 -2.585888,0.2391 -3.606512,0.61 z m 3.334364,1.351 0.02153,0 c 3.856832,-0.1448 7.783679,2.337 9.850372,6.1339 0.04964,0.091 0.113046,0.1731 0.187961,0.2444 l 0.158595,0.1505 c 0.28568,0.2726 0.705065,0.3523 1.07099,0.2033 3.031313,-1.2396 6.372054,-0.9974 8.595336,1.2318 2.273624,2.2799 3.017007,5.7261 1.883533,8.7773 -1.132335,3.048 -3.905913,5.1062 -7.070103,5.2754 l -2.384766,0 c -2.37e-4,-0.011 -0.0017,-0.021 -0.002,-0.031 -0.007,-0.2955 -0.02865,-0.589 -0.06265,-0.8818 -0.0018,-0.016 -0.0039,-0.031 -0.0059,-0.047 -0.112637,-0.9306 -0.360221,-1.8422 -0.736184,-2.7062 -0.530327,-1.2614 -1.295884,-2.2154 -2.200631,-3.1656 -2.701523,-2.5904 -6.57989,-2.9085 -10.02267,-1.8008 -1.504383,-2.3887 -3.683657,-4.261 -6.183159,-5.3379 -0.682237,-0.3039 -1.39082,-0.5048 -2.071496,-0.7 1.013125,-3.1288 3.241348,-5.6733 6.335878,-6.822 0.868632,-0.3224 1.752169,-0.489 2.635384,-0.5241 z m -12.041301,8.9847 0.01567,0 c 0.512413,-0.018 1.025138,0.01 1.535021,0.076 0.0264,0.01 0.04714,0.022 0.0744,0.025 0.798227,0.1035 1.586731,0.3141 2.35148,0.61 2.510935,1.0395 4.593877,2.8401 5.934491,5.1678 0.05101,0.09 0.11574,0.1722 0.191879,0.2426 l 0.14097,0.129 0.01567,0.016 c 0.01895,0.017 0.03854,0.033 0.05873,0.049 0.02154,0.017 0.04375,0.032 0.06657,0.047 0.0084,0.01 0.01688,0.012 0.02545,0.018 l 0.0098,0.01 c 0.02236,0.013 0.04521,0.026 0.06853,0.037 0.0237,0.012 0.04787,0.023 0.07245,0.033 0.0097,0 0.01952,0.01 0.02937,0.012 0.01618,0.01 0.0325,0.011 0.04895,0.016 0.01423,0.01 0.0286,0.011 0.04308,0.016 0.0233,0.01 0.0468,0.011 0.07048,0.016 6.01e-4,2e-4 0.0014,-10e-5 0.002,0 0.193525,0.045 0.398971,0.038 0.591297,-0.037 2.848655,-1.1164 5.988171,-0.9735 8.195916,0.8036 0.147183,0.1184 0.29025,0.2442 0.428788,0.3773 0.0064,0.01 0.01125,0.013 0.01762,0.02 1.595745,1.5542 2.299042,3.5618 2.349522,5.7211 -0.0037,0.164 -0.0033,0.3287 -0.01762,0.4928 -0.06298,0.7074 -0.217101,1.4139 -0.48361,2.1 -1.125945,2.8989 -3.903388,4.8834 -7.095557,5.0466 l -14.165661,0 c -0.03116,0 -0.06251,-0.01 -0.09398,-0.01 -5.0222186,-0.1633 -9.221831,-3.8854 -10.0089648,-8.9063 -0.7909521,-5.0456 2.0982108,-9.9249 6.868437,-11.6183 0.8762948,-0.3111 1.7673718,-0.4731 2.6588758,-0.5064 z"></path><path d="m 41.085311,1039.3621 a 1.002563,1.000015 0 0 0 -0.986799,1.0156 l 0,6.9701 a 1.002563,1.000015 0 1 0 2.004925,0 l 0,-6.9701 a 1.002563,1.000015 0 0 0 -1.018126,-1.0156 z" style="color:#000000;font-style:normal;font-variant:normal;font-weight:normal;font-stretch:normal;font-size:medium;line-height:normal;font-family:sans-serif;text-indent:0;text-align:start;text-decoration:none;text-decoration-line:none;text-decoration-style:solid;text-decoration-color:#000000;letter-spacing:normal;word-spacing:normal;text-transform:none;direction:ltr;block-progression:tb;writing-mode:lr-tb;baseline-shift:baseline;text-anchor:start;white-space:normal;clip-rule:nonzero;display:inline;overflow:visible;visibility:visible;opacity:1;isolation:auto;mix-blend-mode:normal;color-interpolation:sRGB;color-interpolation-filters:linearRGB;solid-color:#000000;solid-opacity:1;fill:#000000;fill-opacity:1;fill-rule:evenodd;stroke:none;stroke-width:2;stroke-linecap:round;stroke-linejoin:round;stroke-miterlimit:4;stroke-dasharray:none;stroke-dashoffset:0;stroke-opacity:1;color-rendering:auto;image-rendering:auto;shape-rendering:auto;text-rendering:auto;enable-background:accumulate"></path><path d="m 44.1001,1041.3622 a 1.0006541,0.99870596 0 0 0 -0.451422,0.1131 l -5.977921,2.9822 a 1.0006541,0.99870596 0 1 0 0.893072,1.7866 l 5.977922,-2.9822 a 1.0006541,0.99870596 0 0 0 -0.441651,-1.8997 z" style="color:#000000;font-style:normal;font-variant:normal;font-weight:normal;font-stretch:normal;font-size:medium;line-height:normal;font-family:sans-serif;text-indent:0;text-align:start;text-decoration:none;text-decoration-line:none;text-decoration-style:solid;text-decoration-color:#000000;letter-spacing:normal;word-spacing:normal;text-transform:none;direction:ltr;block-progression:tb;writing-mode:lr-tb;baseline-shift:baseline;text-anchor:start;white-space:normal;clip-rule:nonzero;display:inline;overflow:visible;visibility:visible;opacity:1;isolation:auto;mix-blend-mode:normal;color-interpolation:sRGB;color-interpolation-filters:linearRGB;solid-color:#000000;solid-opacity:1;fill:#000000;fill-opacity:1;fill-rule:evenodd;stroke:none;stroke-width:2;stroke-linecap:round;stroke-linejoin:round;stroke-miterlimit:4;stroke-dasharray:none;stroke-dashoffset:0;stroke-opacity:1;color-rendering:auto;image-rendering:auto;shape-rendering:auto;text-rendering:auto;enable-background:accumulate"></path><path d="m 38.072857,1041.3626 a 1.0006191,0.99868515 0 0 0 -0.412324,1.8997 l 5.977712,2.9821 a 1.0006191,0.99868515 0 1 0 0.893042,-1.7866 l -5.977712,-2.9821 a 1.0006191,0.99868515 0 0 0 -0.480718,-0.1131 z" style="color:#000000;font-style:normal;font-variant:normal;font-weight:normal;font-stretch:normal;font-size:medium;line-height:normal;font-family:sans-serif;text-indent:0;text-align:start;text-decoration:none;text-decoration-line:none;text-decoration-style:solid;text-decoration-color:#000000;letter-spacing:normal;word-spacing:normal;text-transform:none;direction:ltr;block-progression:tb;writing-mode:lr-tb;baseline-shift:baseline;text-anchor:start;white-space:normal;clip-rule:nonzero;display:inline;overflow:visible;visibility:visible;opacity:1;isolation:auto;mix-blend-mode:normal;color-interpolation:sRGB;color-interpolation-filters:linearRGB;solid-color:#000000;solid-opacity:1;fill:#000000;fill-opacity:1;fill-rule:evenodd;stroke:none;stroke-width:2;stroke-linecap:round;stroke-linejoin:round;stroke-miterlimit:4;stroke-dasharray:none;stroke-dashoffset:0;stroke-opacity:1;color-rendering:auto;image-rendering:auto;shape-rendering:auto;text-rendering:auto;enable-background:accumulate"></path><path style="color:#000000;font-style:normal;font-variant:normal;font-weight:normal;font-stretch:normal;font-size:medium;line-height:normal;font-family:sans-serif;text-indent:0;text-align:start;text-decoration:none;text-decoration-line:none;text-decoration-style:solid;text-decoration-color:#000000;letter-spacing:normal;word-spacing:normal;text-transform:none;direction:ltr;block-progression:tb;writing-mode:lr-tb;baseline-shift:baseline;text-anchor:start;white-space:normal;clip-rule:nonzero;display:inline;overflow:visible;visibility:visible;opacity:1;isolation:auto;mix-blend-mode:normal;color-interpolation:sRGB;color-interpolation-filters:linearRGB;solid-color:#000000;solid-opacity:1;fill:#000000;fill-opacity:1;fill-rule:evenodd;stroke:none;stroke-width:2;stroke-linecap:round;stroke-linejoin:round;stroke-miterlimit:4;stroke-dasharray:none;stroke-dashoffset:0;stroke-opacity:1;color-rendering:auto;image-rendering:auto;shape-rendering:auto;text-rendering:auto;enable-background:accumulate" d="m 30.05822,1043.3623 a 1.002563,1.000015 0 0 0 -0.986799,1.0156 l 0,6.9701 a 1.002563,1.000015 0 1 0 2.004926,0 l 0,-6.9701 a 1.002563,1.000015 0 0 0 -1.018127,-1.0156 z"></path><path style="color:#000000;font-style:normal;font-variant:normal;font-weight:normal;font-stretch:normal;font-size:medium;line-height:normal;font-family:sans-serif;text-indent:0;text-align:start;text-decoration:none;text-decoration-line:none;text-decoration-style:solid;text-decoration-color:#000000;letter-spacing:normal;word-spacing:normal;text-transform:none;direction:ltr;block-progression:tb;writing-mode:lr-tb;baseline-shift:baseline;text-anchor:start;white-space:normal;clip-rule:nonzero;display:inline;overflow:visible;visibility:visible;opacity:1;isolation:auto;mix-blend-mode:normal;color-interpolation:sRGB;color-interpolation-filters:linearRGB;solid-color:#000000;solid-opacity:1;fill:#000000;fill-opacity:1;fill-rule:evenodd;stroke:none;stroke-width:2;stroke-linecap:round;stroke-linejoin:round;stroke-miterlimit:4;stroke-dasharray:none;stroke-dashoffset:0;stroke-opacity:1;color-rendering:auto;image-rendering:auto;shape-rendering:auto;text-rendering:auto;enable-background:accumulate" d="m 33.073009,1045.3624 a 1.0006541,0.99870596 0 0 0 -0.451422,0.1131 l -5.97792,2.9822 a 1.0006541,0.99870596 0 1 0 0.893072,1.7866 l 5.977921,-2.9822 a 1.0006541,0.99870596 0 0 0 -0.441651,-1.8997 z"></path><path style="color:#000000;font-style:normal;font-variant:normal;font-weight:normal;font-stretch:normal;font-size:medium;line-height:normal;font-family:sans-serif;text-indent:0;text-align:start;text-decoration:none;text-decoration-line:none;text-decoration-style:solid;text-decoration-color:#000000;letter-spacing:normal;word-spacing:normal;text-transform:none;direction:ltr;block-progression:tb;writing-mode:lr-tb;baseline-shift:baseline;text-anchor:start;white-space:normal;clip-rule:nonzero;display:inline;overflow:visible;visibility:visible;opacity:1;isolation:auto;mix-blend-mode:normal;color-interpolation:sRGB;color-interpolation-filters:linearRGB;solid-color:#000000;solid-opacity:1;fill:#000000;fill-opacity:1;fill-rule:evenodd;stroke:none;stroke-width:2;stroke-linecap:round;stroke-linejoin:round;stroke-miterlimit:4;stroke-dasharray:none;stroke-dashoffset:0;stroke-opacity:1;color-rendering:auto;image-rendering:auto;shape-rendering:auto;text-rendering:auto;enable-background:accumulate" d="m 27.045766,1045.3628 a 1.0006191,0.99868515 0 0 0 -0.412323,1.8997 l 5.977711,2.9821 a 1.0006191,0.99868515 0 1 0 0.893042,-1.7866 l -5.977712,-2.9821 a 1.0006191,0.99868515 0 0 0 -0.480718,-0.1131 z"></path><path d="m 8.0040389,1043.3623 a 1.002563,1.000015 0 0 0 -0.9867993,1.0156 l 0,6.9701 a 1.002563,1.000015 0 1 0 2.0049255,0 l 0,-6.9701 a 1.002563,1.000015 0 0 0 -1.0181262,-1.0156 z" style="color:#000000;font-style:normal;font-variant:normal;font-weight:normal;font-stretch:normal;font-size:medium;line-height:normal;font-family:sans-serif;text-indent:0;text-align:start;text-decoration:none;text-decoration-line:none;text-decoration-style:solid;text-decoration-color:#000000;letter-spacing:normal;word-spacing:normal;text-transform:none;direction:ltr;block-progression:tb;writing-mode:lr-tb;baseline-shift:baseline;text-anchor:start;white-space:normal;clip-rule:nonzero;display:inline;overflow:visible;visibility:visible;opacity:1;isolation:auto;mix-blend-mode:normal;color-interpolation:sRGB;color-interpolation-filters:linearRGB;solid-color:#000000;solid-opacity:1;fill:#000000;fill-opacity:1;fill-rule:evenodd;stroke:none;stroke-width:2;stroke-linecap:round;stroke-linejoin:round;stroke-miterlimit:4;stroke-dasharray:none;stroke-dashoffset:0;stroke-opacity:1;color-rendering:auto;image-rendering:auto;shape-rendering:auto;text-rendering:auto;enable-background:accumulate"></path><path d="m 11.018827,1045.3624 a 1.0006541,0.99870596 0 0 0 -0.451422,0.1131 l -5.9779198,2.9822 a 1.0006541,0.99870596 0 1 0 0.893072,1.7866 l 5.9779208,-2.9822 a 1.0006541,0.99870596 0 0 0 -0.441651,-1.8997 z" style="color:#000000;font-style:normal;font-variant:normal;font-weight:normal;font-stretch:normal;font-size:medium;line-height:normal;font-family:sans-serif;text-indent:0;text-align:start;text-decoration:none;text-decoration-line:none;text-decoration-style:solid;text-decoration-color:#000000;letter-spacing:normal;word-spacing:normal;text-transform:none;direction:ltr;block-progression:tb;writing-mode:lr-tb;baseline-shift:baseline;text-anchor:start;white-space:normal;clip-rule:nonzero;display:inline;overflow:visible;visibility:visible;opacity:1;isolation:auto;mix-blend-mode:normal;color-interpolation:sRGB;color-interpolation-filters:linearRGB;solid-color:#000000;solid-opacity:1;fill:#000000;fill-opacity:1;fill-rule:evenodd;stroke:none;stroke-width:2;stroke-linecap:round;stroke-linejoin:round;stroke-miterlimit:4;stroke-dasharray:none;stroke-dashoffset:0;stroke-opacity:1;color-rendering:auto;image-rendering:auto;shape-rendering:auto;text-rendering:auto;enable-background:accumulate"></path><path d="m 4.991585,1045.3628 a 1.0006191,0.99868515 0 0 0 -0.4123239,1.8997 l 5.9777119,2.9821 a 1.0006191,0.99868515 0 1 0 0.893042,-1.7866 l -5.977712,-2.9821 a 1.0006191,0.99868515 0 0 0 -0.480718,-0.1131 z" style="color:#000000;font-style:normal;font-variant:normal;font-weight:normal;font-stretch:normal;font-size:medium;line-height:normal;font-family:sans-serif;text-indent:0;text-align:start;text-decoration:none;text-decoration-line:none;text-decoration-style:solid;text-decoration-color:#000000;letter-spacing:normal;word-spacing:normal;text-transform:none;direction:ltr;block-progression:tb;writing-mode:lr-tb;baseline-shift:baseline;text-anchor:start;white-space:normal;clip-rule:nonzero;display:inline;overflow:visible;visibility:visible;opacity:1;isolation:auto;mix-blend-mode:normal;color-interpolation:sRGB;color-interpolation-filters:linearRGB;solid-color:#000000;solid-opacity:1;fill:#000000;fill-opacity:1;fill-rule:evenodd;stroke:none;stroke-width:2;stroke-linecap:round;stroke-linejoin:round;stroke-miterlimit:4;stroke-dasharray:none;stroke-dashoffset:0;stroke-opacity:1;color-rendering:auto;image-rendering:auto;shape-rendering:auto;text-rendering:auto;enable-background:accumulate"></path></g></svg>