<svg xmlns="http://www.w3.org/2000/svg" xmlns:xlink="http://www.w3.org/1999/xlink" version="1.1" x="0px" y="0px" viewBox="0 0 44 44" enable-background="new 0 0 44 44" xml:space="preserve"><g><g><g><g><g><path fill="#000000" d="M18.2,32.8H8.5c-4.7,0-8.5-3.8-8.5-8.5c0-4.9,4.3-8.9,9.3-8.4c1.8-2.8,4.8-4.6,8.1-4.9c0.3,0,0.7,0,1,0       c0.6,0,1.1,0.5,1.1,1.1s-0.5,1.1-1.1,1.1c-0.3,0-0.5,0-0.8,0c-2.9,0.3-5.4,1.9-6.8,4.4c-0.2,0.4-0.7,0.6-1.2,0.5       c-3.9-0.8-7.4,2.3-7.4,6.1c0,3.4,2.8,6.3,6.3,6.3h9.7c0.6,0,1.1,0.5,1.1,1.1S18.8,32.8,18.2,32.8z"></path></g></g></g><g><path fill="#000000" d="M22.7,7.4c-0.6,0-1.1-0.5-1.1-1.1V1.9c0-0.6,0.5-1.1,1.1-1.1s1.1,0.5,1.1,1.1v4.4     C23.8,6.9,23.3,7.4,22.7,7.4z"></path></g><g><path fill="#000000" d="M22.7,43.2c-0.6,0-1.1-0.5-1.1-1.1v-4.4c0-0.6,0.5-1.1,1.1-1.1s1.1,0.5,1.1,1.1v4.4     C23.8,42.7,23.3,43.2,22.7,43.2z"></path></g><g><path fill="#000000" d="M20.4,28.7c-0.3,0-0.6-0.1-0.8-0.3c-0.2-0.2-0.3-0.5-0.3-0.8c0-0.3,0.1-0.6,0.3-0.8     c0.4-0.4,1.2-0.4,1.6,0c0.2,0.2,0.3,0.5,0.3,0.8c0,0.3-0.1,0.6-0.3,0.8C21,28.6,20.7,28.7,20.4,28.7z"></path></g><g><path fill="#000000" d="M42.8,23.1h-4.4c-0.6,0-1.1-0.5-1.1-1.1s0.5-1.1,1.1-1.1h4.4c0.6,0,1.1,0.5,1.1,1.1S43.5,23.1,42.8,23.1z     "></path></g><g><path fill="#000000" d="M11.2,22"></path></g><g><path fill="#000000" d="M14.8,22"></path></g><g><path fill="#000000" d="M33.8,12c-0.3,0-0.6-0.1-0.8-0.3c-0.4-0.4-0.4-1.1,0-1.6L36.2,7c0.4-0.4,1.1-0.4,1.6,0s0.4,1.1,0,1.6     l-3.1,3.1C34.4,11.9,34.1,12,33.8,12z"></path></g><g><path fill="#000000" d="M36.9,37.3c-0.3,0-0.6-0.1-0.8-0.3L33,33.9c-0.4-0.4-0.4-1.1,0-1.6s1.1-0.4,1.6,0l3.1,3.1     c0.4,0.4,0.4,1.1,0,1.6C37.5,37.2,37.2,37.3,36.9,37.3z"></path></g><g><path fill="#000000" d="M22.7,32.8c-0.6,0-1.1-0.5-1.1-1.1s0.5-1.1,1.1-1.1c4.7,0,8.6-3.8,8.6-8.6s-3.8-8.6-8.6-8.6     c-0.6,0-1.1-0.5-1.1-1.1s0.5-1.1,1.1-1.1c5.9,0,10.8,4.8,10.8,10.8S28.7,32.8,22.7,32.8z"></path></g><g><path fill="#000000" d="M20.4,25.7c-0.6,0-1.1-0.5-1.1-1c0-0.2-0.1-1.8,0.9-2.8c0.2-0.2,0.4-0.4,0.7-0.6c0.9-0.7,1.7-1.3,1.7-2.2     c0-0.9-0.7-1.6-1.6-1.6c-0.9,0-1.6,0.7-1.6,1.6c0,0.6-0.5,1.1-1.1,1.1s-1.1-0.5-1.1-1.1c0-2.1,1.7-3.8,3.8-3.8     c2.1,0,3.8,1.7,3.8,3.8c0,2-1.6,3.2-2.5,4c-0.2,0.2-0.4,0.3-0.5,0.4c-0.2,0.2-0.3,0.8-0.3,1.1C21.5,25.2,21.1,25.7,20.4,25.7     C20.5,25.7,20.4,25.7,20.4,25.7z"></path></g></g></g></svg>