<svg xmlns="http://www.w3.org/2000/svg" data-name="Layer 1" viewBox="0 0 100 100" x="0px" y="0px"><title>ski icons</title><circle cx="22.59" cy="42.52" r="4.7" transform="translate(-6.52 4.17) rotate(-9.22)"></circle><circle cx="40.97" cy="42.52" r="4.7" transform="translate(-13.99 64.11) rotate(-67.5)"></circle><circle cx="59.36" cy="42.52" r="4.7" transform="translate(-6.05 10.06) rotate(-9.22)"></circle><circle cx="77.75" cy="42.52" r="4.7" transform="translate(8.71 98.08) rotate(-67.5)"></circle><path d="M95,58.69,91.22,37a7.24,7.24,0,0,0-7.15-6H51.31V24.55a1.31,1.31,0,1,0-2.62,0V31H16.89a7.23,7.23,0,0,0-7,5.63L5.11,58.27a7.17,7.17,0,0,0,7,8.71H15v7.25a2.53,2.53,0,1,0,5.06,0V67h4.67v7.25a2.54,2.54,0,0,0,5.07,0V67H33.4v7.25a2.54,2.54,0,0,0,2.54,2.53h0a2.54,2.54,0,0,0,2.53-2.53V67h4.67v7.25a2.54,2.54,0,0,0,5.07,0V67h3.58v7.25a2.54,2.54,0,0,0,5.07,0V67h4.67v7.25a2.54,2.54,0,0,0,5.07,0V67h3.58v7.25a2.54,2.54,0,0,0,5.07,0V67h4.67v7.25a2.53,2.53,0,0,0,5.06,0V67h3a7.08,7.08,0,0,0,7-8.29ZM91,62.46a4,4,0,0,1-3,1.42H85V62.31a2.53,2.53,0,0,0-1.86-2.44V53.7a4.71,4.71,0,0,0-4.7-4.7H77.08a4.71,4.71,0,0,0-4.7,4.7v6.1a2.54,2.54,0,0,0-2.2,2.51v1.57H66.6V62.31a2.53,2.53,0,0,0-1.87-2.44V53.7A4.71,4.71,0,0,0,60,49H58.69A4.71,4.71,0,0,0,54,53.7v6.1a2.54,2.54,0,0,0-2.2,2.51v1.57H48.21V62.31a2.53,2.53,0,0,0-1.86-2.44V53.7A4.72,4.72,0,0,0,41.64,49H40.3a4.71,4.71,0,0,0-4.7,4.7v6.1a2.54,2.54,0,0,0-2.2,2.51v1.57H29.82V62.31A2.53,2.53,0,0,0,28,59.87V53.7a4.71,4.71,0,0,0-4.7-4.7H21.92a4.72,4.72,0,0,0-4.71,4.7v6.1A2.54,2.54,0,0,0,15,62.31v1.57H12.11a4.07,4.07,0,0,1-4-4.94l4.77-21.67a4.1,4.1,0,0,1,4-3.19H84.07a4.14,4.14,0,0,1,4.09,3.45L91.9,59.22A4,4,0,0,1,91,62.46Z"></path></svg>