<svg xmlns="http://www.w3.org/2000/svg" xmlns:xlink="http://www.w3.org/1999/xlink" version="1.1" x="0px" y="0px" viewBox="0 0 100 100" enable-background="new 0 0 100 100" xml:space="preserve"><path d="M87.502,25.877L13.596,6.064c-0.194-0.051-0.394-0.072-0.594-0.063c-0.073-0.004-0.146-0.004-0.219,0  c-1.098,0.124-1.887,1.115-1.762,2.212c0.096,0.845,0.715,1.537,1.544,1.726l33.25,8.906c-0.3,0.616-0.469,1.307-0.469,2.031  c0,1.86,1.1,3.491,2.688,4.25v0.781H36.065c-2.933,0-5.53,2.113-5.812,4.969h-2.469h-1.188l-0.563,1.031  c-11.266,20.196-11.266,40.867,0,61.063l0.563,1.031h1.188h44.5h1.156l0.563-1.031c11.388-20.306,11.331-40.976,0-61.063  l-0.563-1.031h-1.156h-2.469c-0.283-2.862-2.879-4.969-5.813-4.969H52.033v-0.781c1.484-0.709,2.554-2.199,2.688-3.906l31.75,8.531  c1.07,0.285,2.168-0.352,2.453-1.422C89.209,27.259,88.572,26.161,87.502,25.877z M38.846,40.47v21.969v2h-2H24.721h-2v-2  c0-7.745,2.366-16.721,5.406-22.844l0.563-1.125h1.219h6.937h2V40.47z M61.283,62.439V40.47v-2h2h6.906h1.25l0.531,1.125  c3.052,6.125,5.438,15.099,5.438,22.844v2h-2H63.283h-2V62.439z M55.846,42.47v22.094H44.283V42.47H55.846z"></path></svg>