<svg xmlns="http://www.w3.org/2000/svg" data-name="Layer 1" viewBox="0 0 100 100" x="0px" y="0px"><title>ski icons</title><path d="M16.5,41.29a3.37,3.37,0,1,0,3.36,3.36A3.37,3.37,0,0,0,16.5,41.29Z"></path><path d="M30,41.29a3.37,3.37,0,1,0,3.36,3.36A3.37,3.37,0,0,0,30,41.29Z"></path><path d="M43.4,41.29a3.37,3.37,0,1,0,3.36,3.36A3.37,3.37,0,0,0,43.4,41.29Z"></path><path d="M56.85,41.29a3.37,3.37,0,1,0,3.36,3.36A3.37,3.37,0,0,0,56.85,41.29Z"></path><path d="M70.29,41.29a3.37,3.37,0,1,0,3.37,3.36A3.37,3.37,0,0,0,70.29,41.29Z"></path><path d="M83.74,41.29a3.37,3.37,0,1,0,3.37,3.36A3.37,3.37,0,0,0,83.74,41.29Z"></path><path d="M94.83,56.12l-3-15.56a5.12,5.12,0,0,0-5-4.16H50.93V31.8a.93.93,0,0,0-1.86,0v4.6H13.62a5.15,5.15,0,0,0-5,4L5.2,55.91a5.12,5.12,0,0,0,5,6.23h.87v5.18a1.82,1.82,0,0,0,3.63,0V62.14h3.34v5.18a1.81,1.81,0,0,0,3.62,0V62.14h2.86v5.18a1.82,1.82,0,0,0,3.63,0V62.14H31.5v5.18a1.81,1.81,0,0,0,3.62,0V62.14H38v5.18a1.81,1.81,0,0,0,3.62,0V62.14H45v5.18a1.81,1.81,0,0,0,3.62,0V62.14h2.86v5.18a1.81,1.81,0,1,0,3.62,0V62.14H58.4v5.18a1.81,1.81,0,0,0,3.62,0V62.14h2.86v5.18a1.81,1.81,0,0,0,3.62,0V62.14h3.35v5.18a1.81,1.81,0,0,0,3.62,0V62.14h2.86v5.18a1.81,1.81,0,0,0,3.62,0V62.14H85.3v5.18a1.81,1.81,0,0,0,3.62,0V62.14h.93a5.07,5.07,0,0,0,5-6Zm-2.78,2.77a2.85,2.85,0,0,1-2.2,1h-.93V58.8a1.84,1.84,0,0,0-1.33-1.75V52.64a3.38,3.38,0,0,0-3.37-3.36h-1a3.38,3.38,0,0,0-3.37,3.36V57a1.8,1.8,0,0,0-1.57,1.79v1.12H75.47V58.8a1.84,1.84,0,0,0-1.33-1.75V52.64a3.38,3.38,0,0,0-3.37-3.36h-1a3.38,3.38,0,0,0-3.37,3.36V57a1.8,1.8,0,0,0-1.57,1.79v1.12H62V58.8a1.84,1.84,0,0,0-1.33-1.75V52.64a3.38,3.38,0,0,0-3.37-3.36h-1A3.38,3.38,0,0,0,53,52.64V57a1.8,1.8,0,0,0-1.57,1.79v1.12H48.57V58.8a1.84,1.84,0,0,0-1.33-1.75V52.64a3.38,3.38,0,0,0-3.37-3.36h-.95a3.38,3.38,0,0,0-3.37,3.36V57A1.8,1.8,0,0,0,38,58.8v1.12H35.12V58.8a1.84,1.84,0,0,0-1.33-1.75V52.64a3.38,3.38,0,0,0-3.36-3.36h-1a3.38,3.38,0,0,0-3.37,3.36V57a1.8,1.8,0,0,0-1.57,1.79v1.12H21.67V58.8a1.84,1.84,0,0,0-1.33-1.75V52.64A3.38,3.38,0,0,0,17,49.28H16a3.38,3.38,0,0,0-3.37,3.36V57a1.8,1.8,0,0,0-1.57,1.79v1.12h-.87a2.9,2.9,0,0,1-2.84-3.53L10.78,40.9a2.93,2.93,0,0,1,2.84-2.28H86.8A2.92,2.92,0,0,1,89.66,41l3,15.57A2.86,2.86,0,0,1,92.05,58.89Z"></path></svg>