<svg xmlns="http://www.w3.org/2000/svg" data-name="Layer 1" viewBox="0 0 100 100" x="0px" y="0px"><title>ski icons</title><circle cx="26.21" cy="41.44" r="5.39" transform="translate(-21.62 30.67) rotate(-45)"></circle><circle cx="50.19" cy="41.44" r="5.39"></circle><circle cx="74.18" cy="41.44" r="5.39" transform="translate(-7.54 18.15) rotate(-13.28)"></circle><path d="M94.43,62.62,90.67,33.31c-.4-3.13-3.66-5.5-7.58-5.5H51.5v-7a1.5,1.5,0,0,0-3,0v7H16.92c-3.94,0-7.22,2.38-7.63,5.53L5.57,62.39a5.23,5.23,0,0,0,1.34,4.16,8.21,8.21,0,0,0,6.14,2.54h4.49v8.66a2.9,2.9,0,1,0,5.8,0V69.09h5.35v8.66a2.9,2.9,0,0,0,5.8,0V69.09h7v8.66a2.9,2.9,0,0,0,5.8,0V69.09h5.36v8.66a2.9,2.9,0,0,0,5.8,0V69.09h7v8.66a2.9,2.9,0,0,0,5.8,0V69.09h5.35v8.66a2.9,2.9,0,1,0,5.8,0V69.09h4.77a7.92,7.92,0,0,0,5.91-2.45A5,5,0,0,0,94.43,62.62Zm-4,1.67a4.37,4.37,0,0,1-3.24,1.24H82.46V64.1a2.91,2.91,0,0,0-2.13-2.8V54.24a5.4,5.4,0,0,0-5.39-5.39H73.41A5.41,5.41,0,0,0,68,54.24v7a2.91,2.91,0,0,0-2.51,2.88v1.43h-7V64.1a2.92,2.92,0,0,0-2.13-2.8V54.24A5.41,5.41,0,0,0,51,48.85H49.42A5.4,5.4,0,0,0,44,54.24v7a2.91,2.91,0,0,0-2.52,2.88v1.43h-7V64.1a2.91,2.91,0,0,0-2.13-2.8V54.24A5.4,5.4,0,0,0,27,48.85H25.44a5.41,5.41,0,0,0-5.39,5.39v7a2.91,2.91,0,0,0-2.51,2.88v1.43H13.05A4.7,4.7,0,0,1,9.58,64.2a1.66,1.66,0,0,1-.49-1.35l3.73-29.06c.17-1.34,2-2.42,4.1-2.42H83.09c2.07,0,3.89,1.07,4.06,2.39l3.76,29.31A1.52,1.52,0,0,1,90.47,64.29Z"></path></svg>