<svg xmlns="http://www.w3.org/2000/svg" xmlns:xlink="http://www.w3.org/1999/xlink" width="100" height="100" viewBox="0 0 100 100"><g><g transform="translate(50 50) scale(0.69 0.69) rotate(0) translate(-50 -50)" style="fill:#000000"><svg fill="#000000" xmlns="http://www.w3.org/2000/svg" data-name="Layer 1" viewBox="0 0 100 100" x="0px" y="0px"><title>A</title><path d="M18.18652,84.28418H38.55737a11.46728,11.46728,0,0,0,22.88526,0H81.81348c3.59765,0,6.19336-2.11182,6.61035-5.38037.42187-3.29883-1.41211-5.5835-4.43945-9.03809-7.40333-8.438-7.92774-14.23437-8.49122-27.68994-.538-12.82226-8.33154-21.65234-20.30322-23.60852a7.78129,7.78129,0,1,0-10.37976.00006c-11.9718,1.95612-19.76538,10.78626-20.30334,23.609-.56348,13.45508-1.08789,19.25146-8.49121,27.68945-3.02735,3.45459-4.86133,5.73926-4.43946,9.03809C11.99316,82.17236,14.58887,84.28418,18.18652,84.28418ZM50,91a7.49328,7.49328,0,0,1-7.44214-6.71582H57.44214A7.49328,7.49328,0,0,1,50,91ZM49.99976,8.99951a3.78125,3.78125,0,1,1-3.78125,3.78125A3.78557,3.78557,0,0,1,49.99976,8.99951ZM19.02246,72.50293c8.2627-9.4165,8.90527-16.43262,9.48047-30.15918C29.12793,27.45654,40.01758,22.15234,50,22.15234s20.87207,5.3042,21.49707,20.19092c.5752,13.727,1.21777,20.74317,9.48047,30.15967,3.00293,3.42725,3.65332,4.5293,3.47949,5.894-.20019,1.55957-1.54785,1.88721-2.64355,1.88721h-63.627c-1.0957,0-2.44336-.32764-2.64355-1.88721C15.36914,77.03174,16.01953,75.93018,19.02246,72.50293Z"></path></svg></g></g></svg>