<svg xmlns="http://www.w3.org/2000/svg" xmlns:xlink="http://www.w3.org/1999/xlink" version="1.1" x="0px" y="0px" viewBox="0 0 50 50" enable-background="new 0 0 50 50" xml:space="preserve"><g><path fill-rule="evenodd" clip-rule="evenodd" d="M38.055,21.425l-0.913,1.515l1.475,0.89l-1.506,0.832l0.854,1.548l1.51-0.834   L39.442,27.1l1.767,0.032l0.032-1.721l1.476,0.889l0.913-1.516l-1.475-0.889l1.507-0.833l-0.854-1.548l-1.51,0.835l0.033-1.725   l-1.767-0.032l-0.033,1.722L38.055,21.425z M43.149,28.879l-1.11-0.669l-0.688,1.14l1.111,0.67l-1.134,0.626l0.643,1.165   l1.136-0.628l-0.024,1.298l1.33,0.024l0.024-1.295l1.11,0.67l0.687-1.141l-1.111-0.669l1.134-0.627l-0.643-1.165l-1.136,0.628   l0.024-1.297l-1.33-0.025L43.149,28.879z M42.781,36.462L28.988,11.435l-2.441,1.34L40.34,37.801   c1.236,2.24,4.095,3.073,6.337,1.837c1.849-1.019,2.78-3.181,2.274-5.221c1.142-1.242,1.384-3.094,0.566-4.58l-2.441,1.34   c0.307,0.556,0.105,1.266-0.453,1.573l-1.22,0.673l0.67,1.218c0.499,0.904,0.171,2.057-0.736,2.555   C44.434,37.695,43.28,37.366,42.781,36.462z M20.988,11.767l5.608,10.15l-5.608-1.536l-5.608,1.536L20.988,11.767z M28.472,25.31   l8.78,15.89H4.724l8.78-15.89l7.484-2.05L28.472,25.31z M41.975,43.99L20.988,6.01L0,43.99H41.975z M36.258,20.109l1.332,0.027   l0.027-1.296l1.108,0.671l0.69-1.138l-1.11-0.672l1.138-0.626l-0.641-1.165l-1.135,0.624l0.027-1.297l-1.331-0.028l-0.027,1.297   l-1.108-0.671l-0.69,1.137l1.11,0.672l-1.137,0.626l0.642,1.165l1.135-0.624L36.258,20.109z"></path></g></svg>