<svg xmlns="http://www.w3.org/2000/svg" xmlns:xlink="http://www.w3.org/1999/xlink" version="1.1" x="0px" y="0px" viewBox="0 0 1024 1024" style="enable-background:new 0 0 1024 1024;" xml:space="preserve"><g><g><g><path d="M255.8,256.1c9-9,18.4-17.6,28.2-25.6c2.6-2.2,5.3-4.3,7.9-6.4c4.4-3.5-6,4.5-1.5,1.2     c1.2-0.9,2.3-1.7,3.5-2.6c5.2-3.8,10.5-7.6,15.8-11.1c20.6-13.7,42.4-25.4,65.2-35c-2.4,1-4.8,2-7.2,3     c32-13.4,65.6-22.5,99.9-27.1c-2.7,0.4-5.3,0.7-8,1.1c34.6-4.5,69.6-4.5,104.2,0c-2.7-0.4-5.3-0.7-8-1.1     c34.3,4.6,67.9,13.7,99.9,27.1c-2.4-1-4.8-2-7.2-3c17.7,7.5,34.9,16.2,51.3,26.2c8.5,5.2,16.9,10.7,25,16.5     c1.8,1.3,3.5,2.5,5.2,3.8c1,0.7,1.9,1.4,2.9,2.2c3.7,2.7-2.6-2-2.6-2.1c4.3,3.1,8.4,6.6,12.4,10c15.4,12.9,29.7,27.1,43,42.2     c3.2,3.7,6.3,7.4,9.4,11.1c1.5,1.9,3,3.8,4.5,5.7c1.2,1.5,3.1,4.5-2-2.6c0.8,1.2,1.7,2.3,2.6,3.5c6,8,11.7,16.3,17,24.8     c11.6,18.3,21.5,37.5,30,57.4c-1-2.4-2-4.8-3-7.2c13.4,32,22.5,65.6,27.1,99.9c-0.4-2.7-0.7-5.3-1.1-8c4.5,34.6,4.5,69.6,0,104.2     c0.4-2.7,0.7-5.3,1.1-8c-4.6,34.3-13.7,67.9-27.1,99.9c1-2.4,2-4.8,3-7.2c-7.5,17.7-16.2,34.9-26.2,51.3     c-5.2,8.5-10.7,16.9-16.5,25c-1.3,1.8-2.5,3.5-3.8,5.2c-0.7,1-1.4,1.9-2.2,2.9c-2.7,3.7,2-2.6,2.1-2.6c-3.1,4.3-6.6,8.4-10,12.4     c-12.9,15.4-27.1,29.7-42.2,43c-3.7,3.2-7.4,6.3-11.1,9.4c-1.9,1.5-3.8,3-5.7,4.5c-1.5,1.2-4.5,3.1,2.6-2     c-1.2,0.8-2.3,1.7-3.5,2.6c-8,6-16.3,11.7-24.8,17c-18.3,11.6-37.5,21.5-57.4,30c2.4-1,4.8-2,7.2-3c-32,13.4-65.6,22.5-99.9,27.1     c2.7-0.4,5.3-0.7,8-1.1c-34.6,4.5-69.6,4.5-104.2,0c2.7,0.4,5.3,0.7,8,1.1c-34.3-4.6-67.9-13.7-99.9-27.1c2.4,1,4.8,2,7.2,3     c-17.7-7.5-34.9-16.2-51.3-26.2c-8.5-5.2-16.9-10.7-25-16.5c-1.8-1.3-3.5-2.5-5.2-3.8c-1-0.7-1.9-1.4-2.9-2.2     c-3.7-2.7,2.6,2,2.6,2.1c-4.3-3.1-8.4-6.6-12.4-10c-15.4-12.9-29.7-27.1-43-42.2c-3.2-3.7-6.3-7.4-9.4-11.1     c-1.5-1.9-3-3.8-4.5-5.7c-1.2-1.5-3.1-4.5,2,2.6c-0.8-1.2-1.7-2.3-2.6-3.5c-6-8-11.7-16.3-17-24.8c-11.6-18.3-21.5-37.5-30-57.4     c1,2.4,2,4.8,3,7.2c-13.4-32-22.5-65.6-27.1-99.9c0.4,2.7,0.7,5.3,1.1,8c-4.5-34.6-4.5-69.6,0-104.2c-0.4,2.7-0.7,5.3-1.1,8     c4.6-34.3,13.7-67.9,27.1-99.9c-1,2.4-2,4.8-3,7.2c9.6-22.8,21.3-44.6,35-65.2c3.4-5.2,7-10.3,10.7-15.3c1-1.4,2-2.7,3-4     c3.1-4.1-4.6,5.8-1.2,1.5c1.9-2.5,3.9-4.9,5.9-7.4C237.9,274.9,246.7,265.3,255.8,256.1c11.1-11.1,12-31.5,0-42.4     c-12-11-30.6-11.9-42.4,0c-60.8,61.1-103.1,140.9-117.2,226.1c-6.8,41.3-8.3,82.9-2.9,124.4c5.8,44.6,17.9,87,36.9,127.9     C166.7,771,229.8,838,305.6,880.4c73.8,41.2,160.5,60.1,244.7,51.9c43.3-4.2,85.1-14.4,125.2-31.3c41-17.3,78.4-40.6,112.2-69.5     c65.8-56.3,113.4-133.9,134-218c19.9-81.6,15.6-169.7-14.2-248.4c-31.8-84-88.9-155.9-163.8-205.7     C673.2,112.6,587.6,88.3,503,90.2c-84.9,1.9-169.5,29.5-238.1,79.8c-18.2,13.3-35.4,27.8-51.4,43.7c-11.1,11.1-11.9,31.5,0,42.4     C225.4,267.1,243.9,268,255.8,256.1z"></path></g></g><g><g><path d="M657.3,437.5c-18.7,18.7-37.5,37.5-56.2,56.2c-29.9,29.9-59.8,59.8-89.7,89.7     c-6.9,6.9-13.8,13.8-20.7,20.7c14.1,0,28.3,0,42.4,0c-18.7-18.7-37.5-37.5-56.2-56.2c-29.9-29.9-59.8-59.8-89.7-89.7     c-6.9-6.9-13.8-13.8-20.7-20.7c-11.1-11.1-31.5-11.9-42.4,0c-11,12-11.9,30.6,0,42.4c18.7,18.7,37.5,37.5,56.2,56.2     c29.9,29.9,59.8,59.8,89.7,89.7c6.9,6.9,13.8,13.8,20.7,20.7c11.5,11.5,30.9,11.5,42.4,0c18.7-18.7,37.5-37.5,56.2-56.2     c29.9-29.9,59.8-59.8,89.7-89.7c6.9-6.9,13.8-13.8,20.7-20.7c11.1-11.1,11.9-31.5,0-42.4C687.7,426.5,669.1,425.7,657.3,437.5     L657.3,437.5z"></path></g></g></g></svg>