<svg xmlns="http://www.w3.org/2000/svg" xmlns:xlink="http://www.w3.org/1999/xlink" version="1.1" x="0px" y="0px" viewBox="0 0 1024 1024" style="enable-background:new 0 0 1024 1024;" xml:space="preserve"><g><g><g><path d="M213.5,768.2c-11.9,10.9-11.1,31.3,0,42.4c16,15.9,33.2,30.4,51.4,43.7c68.6,50.3,153.2,77.9,238.1,79.8     c84.6,1.9,170.2-22.4,240.7-69.2c74.9-49.8,132-121.7,163.8-205.7c29.8-78.7,34.1-166.8,14.2-248.4     c-20.6-84.1-68.2-161.7-134-218c-33.8-28.9-71.2-52.2-112.2-69.5c-40.1-16.9-81.9-27.1-125.2-31.3     c-84.2-8.2-170.9,10.7-244.7,51.9c-75.8,42.4-138.9,109.4-175.4,188.3c-19,40.9-31.1,83.3-36.9,127.9     c-5.4,41.5-3.9,83.1,2.9,124.4c14.1,85.2,56.4,165,117.2,226.1c11.8,11.9,30.4,11,42.4,0c12-10.9,11.1-31.3,0-42.4     c-9.1-9.2-17.9-18.8-26.2-28.8c-2-2.5-4-4.9-5.9-7.4c-3.4-4.3,4.3,5.6,1.2,1.5c-1-1.3-2-2.6-3-4c-3.7-5-7.3-10.1-10.7-15.3     c-13.7-20.6-25.4-42.4-35-65.2c1,2.4,2,4.8,3,7.2c-13.4-32-22.5-65.6-27.1-99.9c0.4,2.7,0.7,5.3,1.1,8     c-4.5-34.6-4.5-69.6,0-104.2c-0.4,2.7-0.7,5.3-1.1,8c4.6-34.3,13.7-67.9,27.1-99.9c-1,2.4-2,4.8-3,7.2     c8.5-19.9,18.4-39.1,30-57.4c5.3-8.5,11-16.8,17-24.8c0.9-1.2,1.8-2.3,2.6-3.5c-5.1,7.1-3.2,4.1-2,2.6c1.5-1.9,3-3.8,4.5-5.7     c3.1-3.7,6.2-7.4,9.4-11.1c13.3-15.1,27.6-29.3,43-42.2c4-3.4,8.1-6.9,12.4-10c0,0.1-6.3,4.8-2.6,2.1c1-0.8,1.9-1.5,2.9-2.2     c1.7-1.3,3.4-2.5,5.2-3.8c8.1-5.8,16.5-11.3,25-16.5c16.4-10,33.6-18.7,51.3-26.2c-2.4,1-4.8,2-7.2,3     c32-13.4,65.6-22.5,99.9-27.1c-2.7,0.4-5.3,0.7-8,1.1c34.6-4.5,69.6-4.5,104.2,0c-2.7-0.4-5.3-0.7-8-1.1     c34.3,4.6,67.9,13.7,99.9,27.1c-2.4-1-4.8-2-7.2-3c19.9,8.5,39.1,18.4,57.4,30c8.5,5.3,16.8,11,24.8,17c1.2,0.9,2.3,1.8,3.5,2.6     c-7.1-5.1-4.1-3.2-2.6-2c1.9,1.5,3.8,3,5.7,4.5c3.7,3.1,7.4,6.2,11.1,9.4c15.1,13.3,29.3,27.6,42.2,43c3.4,4,6.9,8.1,10,12.4     c-0.1,0-4.8-6.3-2.1-2.6c0.8,1,1.5,1.9,2.2,2.9c1.3,1.7,2.5,3.4,3.8,5.2c5.8,8.1,11.3,16.5,16.5,25c10,16.4,18.7,33.6,26.2,51.3     c-1-2.4-2-4.8-3-7.2c13.4,32,22.5,65.6,27.1,99.9c-0.4-2.7-0.7-5.3-1.1-8c4.5,34.6,4.5,69.6,0,104.2c0.4-2.7,0.7-5.3,1.1-8     c-4.6,34.3-13.7,67.9-27.1,99.9c1-2.4,2-4.8,3-7.2c-8.5,19.9-18.4,39.1-30,57.4c-5.3,8.5-11,16.8-17,24.8     c-0.9,1.2-1.8,2.3-2.6,3.5c5.1-7.1,3.2-4.1,2-2.6c-1.5,1.9-3,3.8-4.5,5.7c-3.1,3.7-6.2,7.4-9.4,11.1     c-13.3,15.1-27.6,29.3-43,42.2c-4,3.4-8.1,6.9-12.4,10c0-0.1,6.3-4.8,2.6-2.1c-1,0.8-1.9,1.5-2.9,2.2c-1.7,1.3-3.4,2.5-5.2,3.8     c-8.1,5.8-16.5,11.3-25,16.5c-16.4,10-33.6,18.7-51.3,26.2c2.4-1,4.8-2,7.2-3c-32,13.4-65.6,22.5-99.9,27.1     c2.7-0.4,5.3-0.7,8-1.1c-34.6,4.5-69.6,4.5-104.2,0c2.7,0.4,5.3,0.7,8,1.1c-34.3-4.6-67.9-13.7-99.9-27.1c2.4,1,4.8,2,7.2,3     c-22.8-9.6-44.6-21.3-65.2-35c-5.3-3.5-10.6-7.3-15.8-11.1c-1.2-0.9-2.3-1.7-3.5-2.6c-4.5-3.3,5.9,4.7,1.5,1.2     c-2.6-2.1-5.3-4.2-7.9-6.4c-9.8-8-19.2-16.6-28.2-25.6C243.9,756.3,225.4,757.2,213.5,768.2z"></path></g></g><g><g><path d="M657.3,586.8c11.8,11.8,30.4,11,42.4,0c11.9-10.9,11.1-31.3,0-42.4c-6.9-6.9-13.8-13.8-20.7-20.7     c-29.9-29.9-59.8-59.8-89.7-89.7c-18.7-18.7-37.5-37.5-56.2-56.2c-11.5-11.5-30.9-11.5-42.4,0c-6.9,6.9-13.8,13.8-20.7,20.7     c-29.9,29.9-59.8,59.8-89.7,89.7c-18.7,18.7-37.5,37.5-56.2,56.2c-11.9,11.8-11,30.4,0,42.4c10.9,11.9,31.3,11.1,42.4,0     c6.9-6.9,13.8-13.8,20.7-20.7c29.9-29.9,59.8-59.8,89.7-89.7c18.7-18.7,37.5-37.5,56.2-56.2c-14.1,0-28.3,0-42.4,0     c6.9,6.9,13.8,13.8,20.7,20.7c29.9,29.9,59.8,59.8,89.7,89.7C619.8,549.3,638.6,568.1,657.3,586.8L657.3,586.8z"></path></g></g></g></svg>