<svg xmlns="http://www.w3.org/2000/svg" xmlns:xlink="http://www.w3.org/1999/xlink" version="1.1" x="0px" y="0px" viewBox="0 0 1024 1024" style="enable-background:new 0 0 1024 1024;" xml:space="preserve"><g><g><g><path d="M631.3,150.8c30.6,0,61.2,0,91.7,0c48.9,0,97.8,0,146.7,0c11.2,0,22.3,0,33.5,0c-10-10-20-20-30-30     c0,30.6,0,61.2,0,91.7c0,48.9,0,97.8,0,146.7c0,11.2,0,22.3,0,33.5c0,15.7,13.8,30.7,30,30c16.3-0.7,30-13.2,30-30     c0-30.6,0-61.2,0-91.7c0-48.9,0-97.8,0-146.7c0-11.2,0-22.3,0-33.5c0-16.2-13.7-30-30-30c-30.6,0-61.2,0-91.7,0     c-48.9,0-97.8,0-146.7,0c-11.2,0-22.3,0-33.5,0c-15.7,0-30.7,13.8-30,30C602,137,614.4,150.8,631.3,150.8L631.3,150.8z"></path></g></g><g><g><path d="M473.2,593.2c15-15,29.9-29.9,44.9-44.9c35.9-35.9,71.8-71.8,107.8-107.8     c43.5-43.5,86.9-86.9,130.4-130.4c37.6-37.6,75.1-75.1,112.7-112.7c18.3-18.3,36.8-36.2,54.8-54.8c0.3-0.3,0.5-0.5,0.8-0.8     c11.1-11.1,11.9-31.5,0-42.4c-12-11-30.6-11.9-42.4,0c-15,15-29.9,29.9-44.9,44.9c-35.9,35.9-71.8,71.8-107.8,107.8     C686,295.6,642.5,339.1,599,382.5c-37.6,37.6-75.1,75.1-112.7,112.7c-18.3,18.3-36.8,36.2-54.8,54.8c-0.3,0.3-0.5,0.5-0.8,0.8     c-11.1,11.1-11.9,31.5,0,42.4C442.8,604.2,461.4,605.1,473.2,593.2L473.2,593.2z"></path></g></g><g><g><path d="M873.3,552.8c0,32.7,0,65.4,0,98.1c0,50.6,0,101.3,0,151.9c0,13.3,1.1,27.3-0.7,40.5     c0.4-2.7,0.7-5.3,1.1-8c-0.9,5.8-2.4,11.3-4.6,16.8c1-2.4,2-4.8,3-7.2c-1.7,4-3.7,7.9-6.1,11.6c-0.6,0.9-1.3,1.8-1.9,2.7     c-1.6,2.6,5.3-6.2,1.9-2.5c-1.5,1.6-2.8,3.3-4.4,4.8c-1.5,1.5-3.2,2.9-4.8,4.4c-3.1,2.7,3-2.4,3-2.3c0,0.2-2.3,1.7-2.7,1.9     c-3.8,2.6-7.9,4.7-12.1,6.5c2.4-1,4.8-2,7.2-3c-5.4,2.2-11,3.7-16.8,4.6c2.7-0.4,5.3-0.7,8-1.1c-8.2,1.1-16.7,0.7-25,0.7     c-15.5,0-30.9,0-46.4,0c-51.6,0-103.2,0-154.8,0c-62.7,0-125.5,0-188.2,0c-54,0-108,0-162,0c-25.4,0-50.8,0.2-76.1,0     c-3.4,0-6.8-0.2-10.2-0.7c2.7,0.4,5.3,0.7,8,1.1c-5.8-0.9-11.3-2.4-16.8-4.6c2.4,1,4.8,2,7.2,3c-4-1.7-7.9-3.7-11.6-6.1     c-0.9-0.6-1.8-1.3-2.7-1.9c-2.6-1.6,6.2,5.3,2.5,1.9c-1.6-1.5-3.3-2.8-4.8-4.4c-1.5-1.5-2.9-3.2-4.4-4.8c-2.7-3.1,2.4,3,2.3,3     c-0.2,0-1.7-2.3-1.9-2.7c-2.6-3.8-4.7-7.9-6.5-12.1c1,2.4,2,4.8,3,7.2c-2.2-5.4-3.7-11-4.6-16.8c0.4,2.7,0.7,5.3,1.1,8     c-1.1-8.2-0.7-16.7-0.7-25c0-15.5,0-30.9,0-46.4c0-51.6,0-103.2,0-154.8c0-62.7,0-125.5,0-188.2c0-54,0-108,0-162     c0-25.4-0.2-50.8,0-76.1c0-3.4,0.2-6.8,0.7-10.2c-0.4,2.7-0.7,5.3-1.1,8c0.9-5.8,2.4-11.3,4.6-16.8c-1,2.4-2,4.8-3,7.2     c1.7-4,3.7-7.9,6.1-11.6c0.6-0.9,1.3-1.8,1.9-2.7c1.6-2.6-5.3,6.2-1.9,2.5c1.5-1.6,2.8-3.3,4.4-4.8c1.5-1.5,3.2-2.9,4.8-4.4     c3.1-2.7-3,2.4-3,2.3c0-0.2,2.3-1.7,2.7-1.9c3.8-2.6,7.9-4.7,12.1-6.5c-2.4,1-4.8,2-7.2,3c5.4-2.2,11-3.7,16.8-4.6     c-2.7,0.4-5.3,0.7-8,1.1c11.2-1.5,23-0.7,34.3-0.7c22.3,0,44.6,0,66.8,0c51.3,0,102.6,0,153.9,0c11.9,0,23.7,0,35.6,0     c15.7,0,30.7-13.8,30-30c-0.7-16.3-13.2-30-30-30c-26.8,0-53.6,0-80.3,0c-47.1,0-94.2,0-141.3,0c-16,0-32,0-48,0     c-3.5,0-6.9,0-10.4,0c-15.6,0-30.1,3.6-44.3,10.1c-34.3,15.8-55.9,52.4-56.2,89.6c0,4.5,0,9,0,13.5c0,26.6,0,53.2,0,79.8     c0,42.6,0,85.2,0,127.8c0,48.7,0,97.5,0,146.2c0,46,0,92,0,138c0,33.8,0,67.5,0,101.3c0,18.1-0.9,36.3,1.7,54.2     c3,20,13.9,39.6,28.4,53.6c17.1,16.5,38.4,25.3,61.8,27.9c5.6,0.6,11.3,0.4,17,0.4c24.5,0,49,0,73.4,0c41.3,0,82.5,0,123.8,0     c48.7,0,97.3,0,146,0c46.6,0,93.1,0,139.7,0c35.6,0,71.1,0,106.7,0c14.8,0,29.5,0.1,44.3,0c17.8-0.1,35.7-4.8,51-14.1     c19.8-12,33.7-29.8,42.3-51.1c6.1-15,6.3-30.9,6.3-46.8c0-39.7,0-79.4,0-119.1c0-42.6,0-85.1,0-127.7c0-7.2,0-14.5,0-21.7     c0-15.7-13.8-30.7-30-30C887,523.5,873.3,535.9,873.3,552.8L873.3,552.8z"></path></g></g></g></svg>