<svg xmlns="http://www.w3.org/2000/svg" xmlns:xlink="http://www.w3.org/1999/xlink" width="100" height="100" viewBox="0 0 100 100"><g><g transform="translate(50 50) scale(0.69 0.69) rotate(0) translate(-50 -50)" style="fill:#ffd700"><svg fill="#ffd700" xmlns="http://www.w3.org/2000/svg" xmlns:xlink="http://www.w3.org/1999/xlink" version="1.1" x="0px" y="0px" viewBox="0 0 1024 1024" style="enable-background:new 0 0 1024 1024;" xml:space="preserve"><g><polygon points="512,150.2 631,388.7 892,426.6 702,612.9 746.8,873.8 512,750.3 276.4,873.8 321.2,612.9    132,426.6 392.1,388.7  "></polygon><g><path d="M494.7,160.3c13.4,26.8,26.8,53.7,40.2,80.5c21.4,42.8,42.7,85.6,64.1,128.4c4.8,9.7,9.3,19.7,14.5,29.1    c6.3,11.3,19.9,10.7,31,12.4c44.8,6.5,89.5,13,134.3,19.5c35.3,5.1,70.7,11,106.1,15.4c0.6,0.1,1.2,0.2,1.7,0.3    c-2.9-11.1-5.9-22.3-8.8-33.4c-21.6,21.2-43.2,42.4-64.8,63.6c-34,33.4-68.1,66.8-102.1,100.1c-7.6,7.4-15.5,14.7-22.8,22.4    c-6.6,6.9-6.2,14.8-4.8,23.1c0.9,5.2,1.8,10.5,2.7,15.7c7.7,44.6,15.3,89.2,23,133.8c6.1,35.4,11.3,71,18.3,106.2    c0.1,0.6,0.2,1.2,0.3,1.7c9.8-7.5,19.6-15.1,29.4-22.6c-26.8-14.1-53.6-28.2-80.5-42.3c-42.3-22.3-84.6-44.5-126.9-66.8    c-9.1-4.8-18-9.8-27.2-14.3c-8.7-4.3-16.1-2.4-23.7,1.6c-4.8,2.5-9.5,5-14.3,7.5c-40.4,21.2-80.9,42.4-121.3,63.6    c-31.7,16.6-63.9,32.5-95.2,49.9c-0.5,0.3-1,0.5-1.5,0.8c9.8,7.5,19.6,15.1,29.4,22.6c5.1-29.8,10.2-59.5,15.3-89.3    c8.1-47,16.2-94,24.2-141c1.7-10.1,3.6-20.2,5.2-30.4c1.3-7.8,0.1-14.1-5.4-19.9c-0.8-0.8-1.6-1.6-2.4-2.4    c-3.8-3.8-7.7-7.6-11.5-11.4c-32.5-32-64.9-63.9-97.4-95.9c-25.4-25-50.3-50.8-76.4-75.2c-0.4-0.4-0.8-0.8-1.2-1.2    c-2.9,11.1-5.9,22.3-8.8,33.4c29.9-4.4,59.8-8.7,89.7-13.1c46.9-6.8,93.9-13.7,140.8-20.5c9.6-1.4,20.1-1.9,29.5-4.3    c12-3.1,16.8-18.6,21.8-28.5c20.5-40.9,41.1-81.7,61.6-122.6c15.9-31.7,32.1-63.3,47.8-95.1c0.3-0.5,0.5-1,0.8-1.6    c4.7-9.3,2.8-22.1-7.2-27.4c-9.1-4.8-22.3-2.8-27.4,7.2c-13.6,27-27.2,54-40.7,81.1c-21.4,42.7-42.9,85.4-64.3,128    c-4.9,9.8-9.9,19.6-14.8,29.4c4-3.1,8-6.1,12-9.2c-29.3,4.3-58.5,8.5-87.8,12.8c-46.7,6.8-93.4,13.6-140,20.4    c-10.8,1.6-21.5,3.1-32.3,4.7c-6.6,1-12.3,7.9-14,14c-1.9,6.8,0.1,14.5,5.1,19.5c21.4,21.1,42.8,42.1,64.1,63.2    c33.9,33.4,67.8,66.8,101.7,100.2c7.8,7.7,15.5,15.3,23.3,23c-1.7-6.5-3.4-13-5.1-19.5c-5.1,29.5-10.1,58.9-15.2,88.4    c-8,46.8-16.1,93.5-24.1,140.3c-1.8,10.8-3.7,21.5-5.5,32.3c-1.4,8.2,0.3,15.7,7.2,21c6.5,5,15,5.4,22.2,1.6    c26.5-13.9,53-27.8,79.6-41.7c42.3-22.2,84.6-44.3,126.9-66.5c9.7-5.1,19.5-10.2,29.2-15.3c-6.7,0-13.5,0-20.2,0    c26.5,14,53.1,27.9,79.6,41.9c42.1,22.1,84.2,44.3,126.3,66.4c9.6,5.1,19.3,10.1,28.9,15.2c7.2,3.8,15.7,3.5,22.2-1.6    c6.8-5.2,8.6-12.9,7.2-21c-5.1-29.5-10.1-58.9-15.2-88.4c-8-46.8-16.1-93.5-24.1-140.3c-1.8-10.8-3.7-21.5-5.5-32.3    c-1.7,6.5-3.4,13-5.1,19.5c21.4-21,42.8-41.9,64.2-62.9c34.1-33.4,68.2-66.9,102.3-100.3c7.8-7.7,15.7-15.4,23.5-23.1    c5.1-5,7-12.6,5.1-19.5c-1.7-6.1-7.3-13-14-14c-29.5-4.3-59.1-8.6-88.6-12.9c-46.7-6.8-93.4-13.6-140-20.4    c-10.7-1.6-21.5-3.1-32.2-4.7c4,3.1,8,6.1,12,9.2c-13.4-26.8-26.8-53.7-40.2-80.5c-21.4-42.8-42.7-85.6-64.1-128.4    c-4.9-9.9-9.8-19.7-14.8-29.6c-4.7-9.4-18.7-12.8-27.4-7.2C492.3,139.1,489.7,150.2,494.7,160.3z"></path></g></g></svg></g></g></svg>