<svg xmlns="http://www.w3.org/2000/svg" xmlns:xlink="http://www.w3.org/1999/xlink" version="1.1" x="0px" y="0px" viewBox="0 0 1024 1024" style="enable-background:new 0 0 1024 1024;" xml:space="preserve"><g><g><path d="M494.7,166.1c13.2,26.5,26.5,53,39.7,79.5c21,42.1,42,84.1,63,126.2c4.7,9.5,9.1,19.3,14.2,28.5    c6.3,11.2,19.6,10.7,30.6,12.3c44,6.4,88,12.8,132,19.2c34.8,5.1,69.6,10.8,104.5,15.2c0.6,0.1,1.2,0.2,1.8,0.3    c-2.9-11.1-5.9-22.3-8.8-33.4c-21.2,20.8-42.4,41.6-63.6,62.4c-33.6,33-67.2,65.9-100.9,98.9c-7.4,7.2-15.1,14.3-22.2,21.8    c-6.5,6.9-6.2,14.6-4.8,22.9c0.9,5.1,1.8,10.3,2.6,15.4c7.5,43.9,15.1,87.8,22.6,131.8c6,34.8,11.4,69.8,18,104.5    c0.1,0.6,0.2,1.2,0.3,1.8c9.8-7.5,19.6-15.1,29.4-22.6c-26.3-13.8-52.6-27.7-79-41.5c-41.6-21.9-83.2-43.8-124.8-65.7    c-9-4.7-17.9-9.7-27.1-14.2c-8.7-4.3-16.1-2.4-23.8,1.6c-4.7,2.5-9.4,4.9-14.1,7.4c-39.7,20.8-79.5,41.7-119.2,62.5    c-31.2,16.4-62.8,32.2-93.7,49.1c-0.5,0.3-1,0.5-1.6,0.8c9.8,7.5,19.6,15.1,29.4,22.6c5-29.4,10.1-58.7,15.1-88.1    c7.9-46.2,15.9-92.3,23.8-138.5c1.7-10,3.5-19.9,5.1-29.9c1.3-7.7,0.1-14.1-5.3-19.9c-0.8-0.8-1.6-1.6-2.4-2.4    c-3.8-3.8-7.6-7.5-11.4-11.3c-31.9-31.4-63.8-62.8-95.7-94.2c-25-24.7-49.7-49.8-75.1-74c-0.4-0.4-0.8-0.8-1.3-1.3    c-2.9,11.1-5.9,22.3-8.8,33.4c29.5-4.3,59-8.6,88.5-12.9c46.1-6.7,92.2-13.4,138.3-20.2c9.5-1.4,19.7-1.8,29-4.2    c12-3.1,16.7-18.4,21.7-28.3c20.2-40.2,40.4-80.3,60.5-120.5c15.7-31.2,31.5-62.3,47-93.5c0.3-0.5,0.5-1.1,0.8-1.6    c4.7-9.3,2.8-22.1-7.2-27.4c-9.1-4.8-22.3-2.8-27.4,7.2c-13.3,26.5-26.6,53-40,79.5c-21.1,42.1-42.3,84.1-63.4,126.2    c-4.9,9.7-9.7,19.3-14.6,29c4-3.1,8-6.1,12-9.2c-28.9,4.2-57.7,8.4-86.6,12.6c-46,6.7-91.9,13.4-137.9,20.1    c-10.5,1.5-21,3.1-31.5,4.6c-6.6,1-12.3,7.9-14,14c-1.9,6.8,0.1,14.5,5.1,19.5c21,20.7,42,41.3,62.9,62    c33.4,32.9,66.8,65.8,100.3,98.7c7.6,7.5,15.3,15.1,22.9,22.6c-1.7-6.5-3.4-13-5.1-19.5c-5,29.1-10,58.1-15,87.2    c-7.9,45.9-15.8,91.8-23.7,137.8c-1.8,10.6-3.6,21.2-5.5,31.8c-1.4,8.2,0.3,15.7,7.2,21c6.5,5,15,5.4,22.2,1.6    c26.2-13.7,52.3-27.4,78.5-41.1c41.6-21.8,83.3-43.7,124.9-65.5c9.5-5,19-9.9,28.4-14.9c-6.7,0-13.5,0-20.2,0    c26,13.7,52.1,27.4,78.1,41.1c41.5,21.8,83,43.6,124.5,65.5c9.5,5,19,10,28.5,15c7.2,3.8,15.7,3.5,22.2-1.6    c6.8-5.2,8.6-12.9,7.2-21c-5-29.1-10-58.1-15-87.2c-7.9-45.9-15.8-91.8-23.7-137.8c-1.8-10.6-3.6-21.2-5.5-31.8    c-1.7,6.5-3.4,13-5.1,19.5c21.1-20.7,42.2-41.4,63.3-62.1c33.6-32.9,67.1-65.8,100.7-98.8c7.6-7.5,15.3-15,22.9-22.5    c5.1-5,7-12.6,5.1-19.5c-1.7-6.1-7.3-13-14-14c-28.9-4.2-57.7-8.4-86.6-12.6c-46.1-6.7-92.1-13.4-138.2-20.1    c-10.6-1.5-21.3-3.1-31.9-4.6c4,3.1,8,6.1,12,9.2c-13.2-26.5-26.5-53-39.7-79.5c-21-42.1-42-84.1-63-126.2    c-4.8-9.7-9.6-19.3-14.5-29c-4.7-9.4-18.7-12.8-27.4-7.2C492.3,144.9,489.7,156,494.7,166.1z"></path></g></g></svg>