<svg xmlns="http://www.w3.org/2000/svg" xmlns:xlink="http://www.w3.org/1999/xlink" version="1.1" x="0px" y="0px" viewBox="0 0 1024 1024" style="enable-background:new 0 0 1024 1024;" xml:space="preserve"><g><path d="M512,86C276.7,86,86,276.7,86,512s190.7,426,426,426s426-190.7,426-426S747.3,86,512,86z M685.8,542h-0.6   c-14.1,0.3-28.2,0-42.3,0H338.2c-16.8,0-29.3-13.8-30-30c-0.7-16.2,14.3-30,30-30h0.6c14.1-0.3,28.2,0,42.3,0h304.8   c16.8,0,29.3,13.8,30,30C716.6,528.2,701.5,542,685.8,542z"></path></g></svg>