<svg xmlns="http://www.w3.org/2000/svg" xmlns:xlink="http://www.w3.org/1999/xlink" version="1.1" x="0px" y="0px" viewBox="0 0 1024 1024" style="enable-background:new 0 0 1024 1024;" xml:space="preserve"><g><path d="M789.2,234.8c-153.1-153.1-401.3-153.1-554.4,0c-153.1,153.1-153.1,401.3,0,554.4   c153.1,153.1,401.3,153.1,554.4,0C942.3,636.1,942.3,387.9,789.2,234.8z M704.1,440.7c-8.7,8.7-17.5,17.5-26.2,26.2   c-38.2,38.2-76.3,76.3-114.5,114.5c-24,23.9-47.9,47.9-71.8,71.8c-15.3,15.3-41.3,15.3-56.6,0c-4.7-4.7-9.4-9.4-14-14.1   c-33.1-33.2-66.2-66.3-99.3-99.5c-15.8-15.8-14.7-40.6,0-56.6c14.6-15.9,41.8-14.8,56.6,0c4.7,4.7,9.4,9.4,14,14.1   c23.7,23.7,47.4,47.5,71,71.2c37.5-37.5,74.9-74.9,112.4-112.4l71.8-71.8c15.8-15.8,40.6-14.7,56.6,0   C720,398.8,718.9,425.9,704.1,440.7z"></path></g></svg>